<svg xmlns="http://www.w3.org/2000/svg" version="1.1" xmlns:xlink="http://www.w3.org/1999/xlink" xmlns:svgjs="http://svgjs.dev/svgjs" width="1000" height="1000" viewBox="0 0 1000 1000"><rect width="1000" height="1000" fill="#000000"></rect><g transform="matrix(0.7,0,0,0.7,149.57575757575756,282.1265587044535)"><svg viewBox="0 0 396 247" data-background-color="#fffbf4" preserveAspectRatio="xMidYMid meet" height="623" width="1000" xmlns="http://www.w3.org/2000/svg" xmlns:xlink="http://www.w3.org/1999/xlink"><g id="tight-bounds" transform="matrix(1,0,0,1,0.2400000000000091,-0.09999999999999432)"><svg viewBox="0 0 395.52 247.2" height="247.2" width="395.52"><g><svg></svg></g><g><svg viewBox="0 0 395.52 247.2" height="247.2" width="395.52"><g mask="url(#517fbdb8-a750-4bb5-919e-86d42d4bcceb)"><g><path xmlns="http://www.w3.org/2000/svg" d="M126.421 200.948v0c-4.931 7.601-7.396 12.532-7.396 14.792 0 2.26 0.924 3.903 2.774 4.93v0c0 0.205-1.849 1.746-5.547 4.623v0c-3.287 1.644-6.985 2.465-11.094 2.465-4.109 0-7.088-0.452-8.937-1.356-1.849-0.945-2.465-2.445-1.849-4.499v0c2.876-9.245 13.662-27.796 32.357-55.654 18.695-27.817 31.227-47.477 37.596-58.981v0c13.764-24.858 20.647-44.683 20.646-59.475v0c0-6.163-1.027-11.402-3.081-15.716v0c-4.109-8.423-13.867-12.635-29.275-12.635v0c-24.036 0-48.895 10.375-74.575 31.124v0c-20.544 16.641-36.26 34.247-47.149 52.819-10.888 18.613-16.332 35.212-16.332 49.798v0c0 20.955 9.245 31.638 27.734 32.049v0c0.822 0 1.644 0 2.466 0v0c23.626 0 41.91-8.526 54.852-25.577v0c4.931-6.78 7.396-12.532 7.396-17.257 0-4.725-1.027-7.704-3.082-8.937v0c-0.205-0.205-0.308-0.616-0.308-1.233 0-0.616 0.616-0.924 1.849-0.924v0c5.341 0 8.012 3.492 8.012 10.477v0c0 4.314-2.095 10.169-6.286 17.566-4.232 7.396-11.69 14.381-22.373 20.954-10.683 6.574-23.112 9.861-37.287 9.862-14.175 0-25.475-4.417-33.897-13.251-8.423-8.834-12.635-20.441-12.635-34.822v0c0-32.459 21.16-65.638 63.481-99.536v0c10.888-8.628 25.207-15.716 42.957-21.263 17.791-5.547 34.802-8.32 51.032-8.32 16.23 0 27.282 2.815 33.158 8.443 5.834 5.67 8.752 13.23 8.751 22.681v0c0 14.381-5.855 33.795-17.565 58.242v0c-3.698 7.601-12.018 21.468-24.961 41.602v0l23.729-30.2c11.505-14.997 31.432-36.363 59.783-64.097v0c6.163-5.958 13.004-10.95 20.523-14.977 7.478-3.986 13.888-5.978 19.229-5.978v0c7.396 0 11.094 3.903 11.094 11.71v0c0 6.78-3.225 16.99-9.676 30.631-6.492 13.682-13.025 26.646-19.599 38.89-6.574 12.203-10.58 20.195-12.018 23.975-1.438 3.821-2.465 6.862-3.082 9.121-0.616 2.26-1.027 3.492-1.233 3.698v0c0.616-1.027 7.396-8.896 20.339-23.605 12.943-14.668 32.049-32.994 57.318-54.976v0l49.305-40.677c3.903-3.287 7.396-4.931 10.478-4.93 3.082 0 5.588 2.568 7.519 7.704 1.972 5.136 2.958 9.286 2.958 12.449 0 3.205-4.931 9.841-14.792 19.907v0c-25.68 26.296-47.457 55.058-65.33 86.285-17.873 31.227-26.81 53.517-26.809 66.871v0c0 3.492 0.616 5.917 1.848 7.272 1.233 1.315 3.184 1.726 5.856 1.233 2.671-0.534 8.279-2.65 16.825-6.348 8.505-3.698 14.093-5.855 16.764-6.471v0c1.027 0.411 1.541 0.924 1.541 1.54v0c0 3.082-5.383 7.396-16.148 12.943-10.806 5.547-18.921 8.32-24.344 8.32-5.465 0-8.813-0.924-10.046-2.773v0c-3.698-5.341-5.547-11.813-5.547-19.414v0c0-17.668 9.45-43.04 28.35-76.116v0c12.121-20.749 30.816-48.689 56.085-83.819v0c-19.722 16.024-46.429 40.574-80.121 73.65-33.692 33.076-55.777 58.961-66.254 77.656v0c-5.341 9.656-11.813 14.484-19.415 14.484v0c-3.492 0-5.239-1.233-5.238-3.698v0c0-0.822 2.116-4.52 6.348-11.094 4.191-6.574 13.477-21.982 27.857-46.224v0c35.336-61.427 53.003-98.406 53.004-110.937v0c0-3.287-1.13-4.931-3.39-4.931v0c-3.287 0-8.115 2.773-14.483 8.321v0c-22.804 19.106-47.046 44.067-72.726 74.882-25.68 30.816-44.991 56.393-57.934 76.732z" fill="#ffffff" fill-rule="nonzero" stroke="none" stroke-width="1" stroke-linecap="butt" stroke-linejoin="miter" stroke-miterlimit="10" stroke-dasharray="" stroke-dashoffset="0" font-family="none" font-weight="none" font-size="none" text-anchor="none" style="mix-blend-mode: normal" data-fill-palette-color="tertiary"></path></g></g><g transform="matrix(1,0,0,1,0,93.7329289099526)"><svg viewBox="0 0 395.52 59.734142180094786" height="59.734142180094786" width="395.52"><g><svg viewBox="0 0 395.52 59.734142180094786" height="59.734142180094786" width="395.52"><g><svg viewBox="0 0 395.52 59.734142180094786" height="59.734142180094786" width="395.52"><g><svg viewBox="0 0 395.52 59.734142180094786" height="59.734142180094786" width="395.52"><g id="textblocktransform"><svg viewBox="0 0 395.52 59.734142180094786" height="59.734142180094786" width="395.52" id="textblock"><g><svg viewBox="0 0 395.52 59.734142180094786" height="59.734142180094786" width="395.52"><g transform="matrix(1,0,0,1,0,0)"><svg width="395.52" viewBox="-2.199999988079071 -35.54999923706055 317.46002197265625 48.79999923706055" height="59.734142180094786" data-palette-color="#3d4950"><path d="M21.15-2.05L21.15-2.05Q19.95-0.2 19.95 0.35 19.95 0.9 20.4 1.15L20.4 1.15Q20.4 1.2 19.5 1.9L19.5 1.9Q18.7 2.3 17.7 2.3 16.7 2.3 16.25 2.08 15.8 1.85 15.95 1.35L15.95 1.35Q16.65-0.9 21.2-7.68 25.75-14.45 27.3-17.25L27.3-17.25Q30.65-23.3 30.65-26.9L30.65-26.9Q30.65-28.4 30.15-29.45L30.15-29.45Q29.15-31.5 25.4-31.5L25.4-31.5Q19.55-31.5 13.3-26.45L13.3-26.45Q8.3-22.4 5.65-17.88 3-13.35 3-9.8L3-9.8Q3-4.7 7.5-4.6L7.5-4.6Q7.7-4.6 7.9-4.6L7.9-4.6Q13.65-4.6 16.8-8.75L16.8-8.75Q18-10.4 18-11.55 18-12.7 17.5-13L17.5-13Q17.45-13.05 17.45-13.2 17.45-13.35 17.75-13.35L17.75-13.35Q19.05-13.35 19.05-11.65L19.05-11.65Q19.05-10.6 18.03-8.8 17-7 14.4-5.4 11.8-3.8 8.35-3.8 4.9-3.8 2.85-5.95 0.8-8.1 0.8-11.6L0.8-11.6Q0.8-19.5 11.1-27.75L11.1-27.75Q13.75-29.85 18.07-31.2 22.4-32.55 26.35-32.55 30.3-32.55 31.73-31.18 33.15-29.8 33.15-27.5L33.15-27.5Q33.15-24 30.3-18.05L30.3-18.05Q29.4-16.2 26.25-11.3L26.25-11.3 30.1-16.2Q32.9-19.85 39.8-26.6L39.8-26.6Q41.3-28.05 43.13-29.03 44.95-30 46.25-30L46.25-30Q48.05-30 48.05-28.1L48.05-28.1Q48.05-26.45 46.48-23.13 44.9-19.8 43.3-16.82 41.7-13.85 41.35-12.93 41-12 40.85-11.45 40.7-10.9 40.65-10.85L40.65-10.85Q40.8-11.1 43.95-14.68 47.1-18.25 53.25-23.6L53.25-23.6 61.25-30.2Q62.2-31 62.95-31 63.7-31 64.17-29.75 64.65-28.5 64.65-27.73 64.65-26.95 62.25-24.5L62.25-24.5Q56-18.1 51.65-10.5 47.3-2.9 47.3 0.35L47.3 0.35Q47.3 1.2 47.6 1.53 47.9 1.85 48.55 1.73 49.2 1.6 51.28 0.7 53.35-0.2 54-0.35L54-0.35Q54.25-0.25 54.25-0.1L54.25-0.1Q54.25 0.65 51.63 2 49 3.35 47.68 3.35 46.35 3.35 46.05 2.9L46.05 2.9Q45.15 1.6 45.15-0.25L45.15-0.25Q45.15-4.55 49.75-12.6L49.75-12.6Q52.7-17.65 58.85-26.2L58.85-26.2Q54.05-22.3 45.85-14.25 37.65-6.2 35.1-1.65L35.1-1.65Q33.8 0.7 31.95 0.7L31.95 0.7Q31.1 0.7 31.1 0.1L31.1 0.1Q31.1-0.1 32.13-1.7 33.15-3.3 36.65-9.2L36.65-9.2Q45.25-24.15 45.25-27.2L45.25-27.2Q45.25-28 44.7-28L44.7-28Q43.9-28 42.35-26.65L42.35-26.65Q36.8-22 30.55-14.5 24.3-7 21.15-2.05ZM59.35 0.65L59.35 0.65Q58.8 0.65 58.35 0.5L58.35 0.5Q55.15-0.4 55.15-3.1L55.15-3.1Q55.15-6.6 59.55-11.2 63.95-15.8 67.45-15.8L67.45-15.8Q68.6-15.8 69.32-15.18 70.05-14.55 70.05-13.65L70.05-13.65Q70.05-10.85 65.82-8.3 61.6-5.75 58.95-5.75L58.95-5.75Q58.55-5.75 58.25-5.85L58.25-5.85Q57.5-4.5 57.5-3L57.5-3Q57.5-0.4 59.97-0.4 62.45-0.4 66.4-3.75L66.4-3.75Q69.45-6.2 71.6-8.95L71.6-8.95Q72.05-9.55 72.37-9.55 72.7-9.55 72.7-9.25 72.7-8.95 72.3-8.4L72.3-8.4Q69.6-4.85 65.8-2.1 62 0.65 59.35 0.65ZM68.8-13.75L68.8-13.75Q68.8-14.35 67.52-14.35 66.25-14.35 63.9-12.4L63.9-12.4Q60.75-9.8 59-6.95L59-6.95Q59.3-6.85 59.65-6.85L59.65-6.85Q61.55-6.85 64.72-8.88 67.9-10.9 68.7-13.3L68.7-13.3Q68.8-13.55 68.8-13.75ZM71.6-2.5Q71.6-1 73.25-1 74.9-1 77.5-2.75 80.1-4.5 82.55-7.5L82.55-7.5Q83.15-8.3 83.5-8.3 83.85-8.3 83.85-8L83.85-8Q83.85-7.7 81.8-5.4L81.8-5.4Q76.8 0.1 73.45 0.1L73.45 0.1Q71.8 0.1 70.65-0.68 69.5-1.45 69.5-3.08 69.5-4.7 70.35-6.85L70.35-6.85Q71.8-10.25 75-15.4L75-15.4Q80.85-24.9 83.3-24.9L83.3-24.9Q83.8-24.9 84.32-24.53 84.85-24.15 84.9-23.7L84.9-23.7Q83.75-22.15 80.47-17.75 77.2-13.35 75.95-11.43 74.7-9.5 74.07-8.55 73.45-7.6 73.15-7.08 72.85-6.55 72.45-5.7L72.45-5.7Q71.6-4 71.6-2.5ZM98.39-14.95L98.39-14.95 99.09-15.1Q99.64-15.1 100.14-14.65 100.64-14.2 100.64-13.95 100.64-13.7 97.54-9.13 94.44-4.55 94.44-2.75L94.44-2.75Q94.44-2.6 94.49-2.45L94.49-2.45Q94.74-1.3 95.59-1.3L95.59-1.3Q98.19-1.3 105.09-9.9L105.09-9.9Q105.24-10.1 105.44-10.1 105.64-10.1 105.64-9.73 105.64-9.35 105.19-8.75L105.19-8.75Q98.79-0.2 95.44-0.2L95.44-0.2Q94.99-0.2 94.59-0.35L94.59-0.35Q92.39-1.2 92.39-3.65L92.39-3.65Q92.39-4.5 92.59-5.35L92.59-5.35 89.49-2.35Q86.54 0.25 85.22 0.25 83.89 0.25 82.69-0.6L82.69-0.6Q81.34-1.6 81.34-3.25L81.34-3.25Q81.34-6.9 86.44-11.98 91.54-17.05 95.79-17.05L95.79-17.05Q97.44-17.05 97.99-15.9L97.99-15.9Q98.14-15.5 98.24-15.23 98.34-14.95 98.39-14.95ZM83.44-2.65L83.44-2.65Q83.44-0.85 84.69-0.85L84.69-0.85Q87.59-0.85 92.59-7.2L92.59-7.2 97.89-14.5Q97.49-15.2 96.59-15.2L96.59-15.2Q93.54-15.2 88.49-10.48 83.44-5.75 83.44-2.65ZM119.09-15.25L119.09-15.25 119.79-15.4Q120.44-15.4 120.82-15 121.19-14.6 121.19-14.38 121.19-14.15 121.14-13.88 121.09-13.6 119.69-11.35L119.69-11.35Q117.94-8.3 116.79-6.2L116.79-6.2Q112.74 1.35 110.59 4.15L110.59 4.15Q105.99 10.25 101.84 10.25L101.84 10.25Q100.39 10.25 99.32 9.03 98.24 7.8 98.19 6.3L98.19 6.3Q98.34 5.7 98.64 5.7L98.64 5.7Q98.79 5.7 98.89 6.05L98.89 6.05Q99.14 7.35 99.84 8.05 100.54 8.75 101.24 8.75L101.24 8.75Q104.09 8.75 107.34 5L107.34 5Q109.49 2.5 112.09-2.3L112.09-2.3 114.59-7.25 110.84-3.45Q107.24 0 105.92 0 104.59 0 103.39-0.9L103.39-0.9Q102.04-1.9 102.04-3.55L102.04-3.55Q102.04-7.2 107.17-12.25 112.29-17.3 116.49-17.3L116.49-17.3Q118.19-17.3 118.69-16.2L118.69-16.2Q118.84-15.8 118.94-15.53 119.04-15.25 119.09-15.25ZM104.14-2.95L104.14-2.95Q104.14-1.15 105.39-1.15L105.39-1.15Q108.29-1.15 113.29-7.5L113.29-7.5 118.59-14.8Q118.29-15.5 117.34-15.5L117.34-15.5Q114.24-15.5 109.19-10.73 104.14-5.95 104.14-2.95ZM131.09 0.25L131.09 0.25Q127.34 0.25 127.34-3.9L127.34-3.9Q127.34-6 128.44-8.5 129.54-11 130.84-12.7L130.84-12.7Q130.59-12.65 130.19-12.65L130.19-12.65Q128.99-12.65 128.19-14.35L128.19-14.35 124.49-9.55Q121.39-5.7 120.89-5.7L120.89-5.7Q120.64-5.7 120.64-5.9L120.64-5.9Q120.64-6.4 121.49-7.35L121.49-7.35Q125.84-12.4 127.64-15.9L127.64-15.9Q128.79-20.25 130.54-20.25L130.54-20.25Q131.69-20.25 131.69-19.25 131.69-18.25 130.44-16.7L130.44-16.7 129.24-15.1Q129.24-14.05 130.79-14.05L130.79-14.05Q131.69-14.05 132.79-14.7L132.79-14.7 134.09-15.5Q134.19-15.55 134.59-15.55 134.99-15.55 135.44-15.05 135.89-14.55 135.74-14.15L135.74-14.15 132.29-9.8Q129.09-5.7 129.09-3.33 129.09-0.95 131.29-0.95L131.29-0.95Q133.59-0.95 136.94-3.4L136.94-3.4Q138.94-4.85 140.59-6.65L140.59-6.65Q142.14-8.45 142.29-8.45L142.29-8.45Q142.64-8.45 142.64-8.08 142.64-7.7 142.19-7.2L142.19-7.2 140.59-5.4Q139.24-4 137.59-2.7L137.59-2.7Q133.64 0.25 131.09 0.25ZM157.19-14.95L157.19-14.95 157.89-15.1Q158.44-15.1 158.94-14.65 159.44-14.2 159.44-13.95 159.44-13.7 156.34-9.13 153.24-4.55 153.24-2.75L153.24-2.75Q153.24-2.6 153.29-2.45L153.29-2.45Q153.54-1.3 154.39-1.3L154.39-1.3Q156.99-1.3 163.89-9.9L163.89-9.9Q164.04-10.1 164.24-10.1 164.44-10.1 164.44-9.73 164.44-9.35 163.99-8.75L163.99-8.75Q157.59-0.2 154.24-0.2L154.24-0.2Q153.79-0.2 153.39-0.35L153.39-0.35Q151.19-1.2 151.19-3.65L151.19-3.65Q151.19-4.5 151.39-5.35L151.39-5.35 148.29-2.35Q145.34 0.25 144.01 0.25 142.69 0.25 141.49-0.6L141.49-0.6Q140.14-1.6 140.14-3.25L140.14-3.25Q140.14-6.9 145.24-11.98 150.34-17.05 154.59-17.05L154.59-17.05Q156.24-17.05 156.79-15.9L156.79-15.9Q156.94-15.5 157.04-15.23 157.14-14.95 157.19-14.95ZM142.24-2.65L142.24-2.65Q142.24-0.85 143.49-0.85L143.49-0.85Q146.39-0.85 151.39-7.2L151.39-7.2 156.69-14.5Q156.29-15.2 155.39-15.2L155.39-15.2Q152.34-15.2 147.29-10.48 142.24-5.75 142.24-2.65ZM164.98 0.65L164.98 0.65Q164.43 0.65 163.98 0.5L163.98 0.5Q160.78-0.4 160.78-3.1L160.78-3.1Q160.78-6.6 165.18-11.2 169.58-15.8 173.08-15.8L173.08-15.8Q174.23-15.8 174.96-15.18 175.68-14.55 175.68-13.48 175.68-12.4 175.03-11.23 174.38-10.05 173.08-10.05 171.78-10.05 171.78-10.85L171.78-10.85Q171.78-11.4 172.46-12.53 173.13-13.65 173.13-13.73 173.13-13.8 172.98-13.8L172.98-13.8Q171.58-13.65 169.16-11.8 166.73-9.95 165.83-8.7L165.83-8.7 163.88-5.85Q163.38-5.05 163.16-3.95 162.93-2.85 162.93-2.3 162.93-1.75 163.56-1.05 164.18-0.35 165.33-0.35L165.33-0.35Q167.83-0.35 171.53-3.28 175.23-6.2 177.23-8.85L177.23-8.85Q177.48-9.15 177.83-9.15 178.18-9.15 178.18-8.95 178.18-8.75 177.93-8.45L177.93-8.45Q175.18-4.8 171.36-2.08 167.53 0.65 164.98 0.65ZM177.88 0.65L177.88 0.65Q177.33 0.65 176.88 0.5L176.88 0.5Q173.68-0.4 173.68-3.1L173.68-3.1Q173.68-6.6 178.08-11.2 182.48-15.8 185.98-15.8L185.98-15.8Q187.13-15.8 187.86-15.18 188.58-14.55 188.58-13.65L188.58-13.65Q188.58-10.85 184.36-8.3 180.13-5.75 177.48-5.75L177.48-5.75Q177.08-5.75 176.78-5.85L176.78-5.85Q176.03-4.5 176.03-3L176.03-3Q176.03-0.4 178.51-0.4 180.98-0.4 184.93-3.75L184.93-3.75Q187.98-6.2 190.13-8.95L190.13-8.95Q190.58-9.55 190.91-9.55 191.23-9.55 191.23-9.25 191.23-8.95 190.83-8.4L190.83-8.4Q188.13-4.85 184.33-2.1 180.53 0.65 177.88 0.65ZM187.33-13.75L187.33-13.75Q187.33-14.35 186.06-14.35 184.78-14.35 182.43-12.4L182.43-12.4Q179.28-9.8 177.53-6.95L177.53-6.95Q177.83-6.85 178.18-6.85L178.18-6.85Q180.08-6.85 183.26-8.88 186.43-10.9 187.23-13.3L187.23-13.3Q187.33-13.55 187.33-13.75ZM190.13-2.5Q190.13-1 191.78-1 193.43-1 196.03-2.75 198.63-4.5 201.08-7.5L201.08-7.5Q201.68-8.3 202.03-8.3 202.38-8.3 202.38-8L202.38-8Q202.38-7.7 200.33-5.4L200.33-5.4Q195.33 0.1 191.98 0.1L191.98 0.1Q190.33 0.1 189.18-0.68 188.03-1.45 188.03-3.08 188.03-4.7 188.88-6.85L188.88-6.85Q190.33-10.25 193.53-15.4L193.53-15.4Q199.38-24.9 201.83-24.9L201.83-24.9Q202.33-24.9 202.85-24.53 203.38-24.15 203.43-23.7L203.43-23.7Q202.28-22.15 199-17.75 195.73-13.35 194.48-11.43 193.23-9.5 192.6-8.55 191.98-7.6 191.68-7.08 191.38-6.55 190.98-5.7L190.98-5.7Q190.13-4 190.13-2.5ZM202.88 0.65L202.88 0.65Q202.33 0.65 201.88 0.5L201.88 0.5Q198.68-0.4 198.68-3.1L198.68-3.1Q198.68-6.6 203.08-11.2 207.48-15.8 210.98-15.8L210.98-15.8Q212.13-15.8 212.85-15.18 213.58-14.55 213.58-13.65L213.58-13.65Q213.58-10.85 209.35-8.3 205.13-5.75 202.48-5.75L202.48-5.75Q202.08-5.75 201.78-5.85L201.78-5.85Q201.03-4.5 201.03-3L201.03-3Q201.03-0.4 203.5-0.4 205.98-0.4 209.93-3.75L209.93-3.75Q212.98-6.2 215.13-8.95L215.13-8.95Q215.58-9.55 215.9-9.55 216.23-9.55 216.23-9.25 216.23-8.95 215.83-8.4L215.83-8.4Q213.13-4.85 209.33-2.1 205.53 0.65 202.88 0.65ZM212.33-13.75L212.33-13.75Q212.33-14.35 211.05-14.35 209.78-14.35 207.43-12.4L207.43-12.4Q204.28-9.8 202.53-6.95L202.53-6.95Q202.83-6.85 203.18-6.85L203.18-6.85Q205.08-6.85 208.25-8.88 211.43-10.9 212.23-13.3L212.23-13.3Q212.33-13.55 212.33-13.75ZM224.57-12.45L224.57-12.45Q224.57-15.85 226.67-15.85L226.67-15.85Q226.87-15.85 227.12-15.8L227.12-15.8Q227.97-15.65 227.97-14.5 227.97-13.35 227.57-11.6L227.57-11.6Q227.17-10.3 227.02-9.65L227.02-9.65Q227.17-8.8 227.85-7.48 228.52-6.15 229.7-6.15 230.87-6.15 232.32-7.75L232.32-7.75Q232.62-8.1 232.9-8.1 233.17-8.1 233.2-7.78 233.22-7.45 232.82-6.9L232.82-6.9Q231.27-5.05 229.57-5.05L229.57-5.05Q227.12-5.05 225.62-8.65L225.62-8.65Q224.07-5.1 221.22-2.53 218.37 0.05 215.57 0.05L215.57 0.05Q212.92 0.05 212.92-3.95L212.92-3.95Q212.92-7.1 218.8-15.55 224.67-24 227.77-24L227.77-24Q228.42-24 228.95-23.6 229.47-23.2 229.47-22.65L229.47-22.65Q229.47-22.7 228.75-21.9 228.02-21.1 224.8-17.6 221.57-14.1 218.47-9.9 215.37-5.7 215.37-3.4L215.37-3.4Q215.37-2.8 215.7-2.1 216.02-1.4 216.77-1.4L216.77-1.4Q218.97-1.4 221.92-4.8L221.92-4.8Q224.37-7.8 224.92-9.85L224.92-9.85Q224.57-10.9 224.57-12.45ZM241.62 0.25L241.62 0.25Q237.87 0.25 237.87-3.9L237.87-3.9Q237.87-6 238.97-8.5 240.07-11 241.37-12.7L241.37-12.7Q241.12-12.65 240.72-12.65L240.72-12.65Q239.52-12.65 238.72-14.35L238.72-14.35 235.02-9.55Q231.92-5.7 231.42-5.7L231.42-5.7Q231.17-5.7 231.17-5.9L231.17-5.9Q231.17-6.4 232.02-7.35L232.02-7.35Q236.37-12.4 238.17-15.9L238.17-15.9Q239.32-20.25 241.07-20.25L241.07-20.25Q242.22-20.25 242.22-19.25 242.22-18.25 240.97-16.7L240.97-16.7 239.77-15.1Q239.77-14.05 241.32-14.05L241.32-14.05Q242.22-14.05 243.32-14.7L243.32-14.7 244.62-15.5Q244.72-15.55 245.12-15.55 245.52-15.55 245.97-15.05 246.42-14.55 246.27-14.15L246.27-14.15 242.82-9.8Q239.62-5.7 239.62-3.33 239.62-0.95 241.82-0.95L241.82-0.95Q244.12-0.95 247.47-3.4L247.47-3.4Q249.47-4.85 251.12-6.65L251.12-6.65Q252.67-8.45 252.82-8.45L252.82-8.45Q253.17-8.45 253.17-8.08 253.17-7.7 252.72-7.2L252.72-7.2 251.12-5.4Q249.77-4 248.12-2.7L248.12-2.7Q244.17 0.25 241.62 0.25ZM267.72-14.95L267.72-14.95 268.42-15.1Q268.97-15.1 269.47-14.65 269.97-14.2 269.97-13.95 269.97-13.7 266.87-9.13 263.77-4.55 263.77-2.75L263.77-2.75Q263.77-2.6 263.82-2.45L263.82-2.45Q264.07-1.3 264.92-1.3L264.92-1.3Q267.52-1.3 274.42-9.9L274.42-9.9Q274.57-10.1 274.77-10.1 274.97-10.1 274.97-9.73 274.97-9.35 274.52-8.75L274.52-8.75Q268.12-0.2 264.77-0.2L264.77-0.2Q264.32-0.2 263.92-0.35L263.92-0.35Q261.72-1.2 261.72-3.65L261.72-3.65Q261.72-4.5 261.92-5.35L261.92-5.35 258.82-2.35Q255.87 0.25 254.54 0.25 253.22 0.25 252.02-0.6L252.02-0.6Q250.67-1.6 250.67-3.25L250.67-3.25Q250.67-6.9 255.77-11.98 260.87-17.05 265.12-17.05L265.12-17.05Q266.77-17.05 267.32-15.9L267.32-15.9Q267.47-15.5 267.57-15.23 267.67-14.95 267.72-14.95ZM252.77-2.65L252.77-2.65Q252.77-0.85 254.02-0.85L254.02-0.85Q256.92-0.85 261.92-7.2L261.92-7.2 267.22-14.5Q266.82-15.2 265.92-15.2L265.92-15.2Q262.87-15.2 257.82-10.48 252.77-5.75 252.77-2.65ZM279.77-15.8L279.77-15.8Q281.12-15.8 281.12-14.75L281.12-14.75Q281.12-14.45 280.97-14.15L280.97-14.15Q276.47-7.9 275.57-4.7L275.57-4.7Q287.22-16.35 289.72-16.35L289.72-16.35Q289.97-16.4 290.17-16.4L290.17-16.4Q291.57-16.4 291.57-15.15L291.57-15.15Q291.57-14.9 291.47-14.65 291.37-14.4 289.47-11.95L289.47-11.95Q287.27-9.35 285.74-6.95 284.22-4.55 284.22-2.95 284.22-1.35 284.92-1.35L284.92-1.35Q287.12-1.35 292.57-7.4L292.57-7.4Q292.67-7.5 292.92-7.85L292.92-7.85Q293.67-8.75 293.82-8.75 293.97-8.75 293.97-8.25 293.97-7.75 293.27-6.95L293.27-6.95Q287.07 0.1 284.47 0.1L284.47 0.1Q282.02 0.1 282.02-2.6 282.02-5.3 284.02-8.8L284.02-8.8 287.22-14Q283.82-11.5 281.17-8.53 278.52-5.55 276.34-2.75 274.17 0.05 273.82 0.05L273.82 0.05Q273.07 0.05 272.64-0.58 272.22-1.2 272.22-2.13 272.22-3.05 272.87-4.6 273.52-6.15 274.52-8.35L274.52-8.35 271.52-5.2Q270.42-4.1 270.14-4.1 269.87-4.1 269.87-4.42 269.87-4.75 270.27-5.15L270.27-5.15Q272.12-7 273.47-8.7L273.47-8.7Q274.77-10.4 278.82-15.2L278.82-15.2Q279.27-15.8 279.77-15.8ZM304.91-16.1L304.91-16.1 312.11-16.2Q312.26-16.1 312.26-16.05L312.26-16.05Q312.26-15.6 306.04-14.8 299.81-14 299.31-13.85L299.31-13.85Q298.36-13 295.81-8.78 293.26-4.55 293.26-2.6L293.26-2.6Q293.26-0.75 295.81-0.75L295.81-0.75Q297.01-0.75 298.96-1.5 300.91-2.25 301.96-2.9L301.96-2.9Q304.76-4.65 307.96-8.05L307.96-8.05Q308.66-8.75 308.91-8.75L308.91-8.75Q309.06-8.75 309.06-8.45 309.06-8.15 308.31-7.25L308.31-7.25Q305.71-4.05 302.46-2.1L302.46-2.1Q298.56 0.3 295.01 0.3L295.01 0.3Q293.46 0.3 292.49-0.38 291.51-1.05 291.51-3.1 291.51-5.15 293.31-8.72 295.11-12.3 296.06-14.05L296.06-14.05Q295.36-13.9 294.86-13.9L294.86-13.9Q293.41-13.9 293.41-15.05L293.41-15.05Q293.41-15.9 294.61-16.25L294.61-16.25Q294.76-16.25 295.06-16.3L295.06-16.3 297.96-16.3Q298.86-17.45 300.01-18.95L300.01-18.95Q301.41-20.75 301.91-20.75 302.41-20.75 303.16-20.35 303.91-19.95 303.91-19.4 303.91-18.85 301.51-16.15L301.51-16.15Q302.81-16.1 304.91-16.1Z" opacity="1" transform="matrix(1,0,0,1,0,0)" fill="#ffffff" class="undefined-text-0" data-fill-palette-color="primary" id="text-0"></path></svg></g></svg></g></svg></g></svg></g><g></g></svg></g></svg></g></svg></g></svg></g><defs><mask id="517fbdb8-a750-4bb5-919e-86d42d4bcceb"><rect width="395.52" height="247.2" fill="white"></rect><g transform="matrix(1,0,0,1,0,93.7329289099526)" id="clone"><svg viewBox="0 0 395.52 59.734142180094786" height="59.734142180094786" width="395.52"><g><svg viewBox="0 0 395.52 59.734142180094786" height="59.734142180094786" width="395.52"><g><svg viewBox="0 0 395.52 59.734142180094786" height="59.734142180094786" width="395.52"><g><svg viewBox="0 0 395.52 59.734142180094786" height="59.734142180094786" width="395.52"><g id="SvgjsG1138"><svg viewBox="0 0 395.52 59.734142180094786" height="59.734142180094786" width="395.52" id="SvgjsSvg1137"><g><svg viewBox="0 0 395.52 59.734142180094786" height="59.734142180094786" width="395.52"><g transform="matrix(1,0,0,1,0,0)"><svg width="395.52" viewBox="-2.199999988079071 -35.54999923706055 317.46002197265625 48.79999923706055" height="59.734142180094786" data-palette-color="#3d4950"><path d="M21.15-2.05L21.15-2.05Q19.95-0.2 19.95 0.35 19.95 0.9 20.4 1.15L20.4 1.15Q20.4 1.2 19.5 1.9L19.5 1.9Q18.7 2.3 17.7 2.3 16.7 2.3 16.25 2.08 15.8 1.85 15.95 1.35L15.95 1.35Q16.65-0.9 21.2-7.68 25.75-14.45 27.3-17.25L27.3-17.25Q30.65-23.3 30.65-26.9L30.65-26.9Q30.65-28.4 30.15-29.45L30.15-29.45Q29.15-31.5 25.4-31.5L25.4-31.5Q19.55-31.5 13.3-26.45L13.3-26.45Q8.3-22.4 5.65-17.88 3-13.35 3-9.8L3-9.8Q3-4.7 7.5-4.6L7.5-4.6Q7.7-4.6 7.9-4.6L7.9-4.6Q13.65-4.6 16.8-8.75L16.8-8.75Q18-10.4 18-11.55 18-12.7 17.5-13L17.5-13Q17.45-13.05 17.45-13.2 17.45-13.35 17.75-13.35L17.75-13.35Q19.05-13.35 19.05-11.65L19.05-11.65Q19.05-10.6 18.03-8.8 17-7 14.4-5.4 11.8-3.8 8.35-3.8 4.9-3.8 2.85-5.95 0.8-8.1 0.8-11.6L0.8-11.6Q0.8-19.5 11.1-27.75L11.1-27.75Q13.75-29.85 18.07-31.2 22.4-32.55 26.35-32.55 30.3-32.55 31.73-31.18 33.15-29.8 33.15-27.5L33.15-27.5Q33.15-24 30.3-18.05L30.3-18.05Q29.4-16.2 26.25-11.3L26.25-11.3 30.1-16.2Q32.9-19.85 39.8-26.6L39.8-26.6Q41.3-28.05 43.13-29.03 44.95-30 46.25-30L46.25-30Q48.05-30 48.05-28.1L48.05-28.1Q48.05-26.45 46.48-23.13 44.9-19.8 43.3-16.82 41.7-13.85 41.35-12.93 41-12 40.85-11.45 40.7-10.9 40.65-10.85L40.65-10.85Q40.8-11.1 43.95-14.68 47.1-18.25 53.25-23.6L53.25-23.6 61.25-30.2Q62.2-31 62.95-31 63.7-31 64.17-29.75 64.65-28.5 64.65-27.73 64.65-26.95 62.25-24.5L62.25-24.5Q56-18.1 51.65-10.5 47.3-2.9 47.3 0.35L47.3 0.35Q47.3 1.2 47.6 1.53 47.9 1.85 48.55 1.73 49.2 1.6 51.28 0.7 53.35-0.2 54-0.35L54-0.35Q54.25-0.25 54.25-0.1L54.25-0.1Q54.25 0.65 51.63 2 49 3.35 47.68 3.35 46.35 3.35 46.05 2.9L46.05 2.9Q45.15 1.6 45.15-0.25L45.15-0.25Q45.15-4.55 49.75-12.6L49.75-12.6Q52.7-17.65 58.85-26.2L58.85-26.2Q54.05-22.3 45.85-14.25 37.65-6.2 35.1-1.65L35.1-1.65Q33.8 0.7 31.95 0.7L31.95 0.7Q31.1 0.7 31.1 0.1L31.1 0.1Q31.1-0.1 32.13-1.7 33.15-3.3 36.65-9.2L36.65-9.2Q45.25-24.15 45.25-27.2L45.25-27.2Q45.25-28 44.7-28L44.7-28Q43.9-28 42.35-26.65L42.35-26.65Q36.8-22 30.55-14.5 24.3-7 21.15-2.05ZM59.35 0.65L59.35 0.65Q58.8 0.65 58.35 0.5L58.35 0.5Q55.15-0.4 55.15-3.1L55.15-3.1Q55.15-6.6 59.55-11.2 63.95-15.8 67.45-15.8L67.45-15.8Q68.6-15.8 69.32-15.18 70.05-14.55 70.05-13.65L70.05-13.65Q70.05-10.85 65.82-8.3 61.6-5.75 58.95-5.75L58.95-5.75Q58.55-5.75 58.25-5.85L58.25-5.85Q57.5-4.5 57.5-3L57.5-3Q57.5-0.4 59.97-0.4 62.45-0.4 66.4-3.75L66.4-3.75Q69.45-6.2 71.6-8.95L71.6-8.95Q72.05-9.55 72.37-9.55 72.7-9.55 72.7-9.25 72.7-8.95 72.3-8.4L72.3-8.4Q69.6-4.85 65.8-2.1 62 0.65 59.35 0.65ZM68.8-13.75L68.8-13.75Q68.8-14.35 67.52-14.35 66.25-14.35 63.9-12.4L63.9-12.4Q60.75-9.8 59-6.95L59-6.95Q59.3-6.85 59.65-6.85L59.65-6.85Q61.55-6.85 64.72-8.88 67.9-10.9 68.7-13.3L68.7-13.3Q68.8-13.55 68.8-13.75ZM71.6-2.5Q71.6-1 73.25-1 74.9-1 77.5-2.75 80.1-4.5 82.55-7.5L82.55-7.5Q83.15-8.3 83.5-8.3 83.85-8.3 83.85-8L83.85-8Q83.85-7.7 81.8-5.4L81.8-5.4Q76.8 0.1 73.45 0.1L73.45 0.1Q71.8 0.1 70.65-0.68 69.5-1.45 69.5-3.08 69.5-4.7 70.35-6.85L70.35-6.85Q71.8-10.25 75-15.4L75-15.4Q80.85-24.9 83.3-24.9L83.3-24.9Q83.8-24.9 84.32-24.53 84.85-24.15 84.9-23.7L84.9-23.7Q83.75-22.15 80.47-17.75 77.2-13.35 75.95-11.43 74.7-9.5 74.07-8.55 73.45-7.6 73.15-7.08 72.85-6.55 72.45-5.7L72.45-5.7Q71.6-4 71.6-2.5ZM98.39-14.95L98.39-14.95 99.09-15.1Q99.64-15.1 100.14-14.65 100.64-14.2 100.64-13.95 100.64-13.7 97.54-9.13 94.44-4.55 94.44-2.75L94.44-2.75Q94.44-2.6 94.49-2.45L94.49-2.45Q94.74-1.3 95.59-1.3L95.59-1.3Q98.19-1.3 105.09-9.9L105.09-9.9Q105.24-10.1 105.44-10.1 105.64-10.1 105.64-9.73 105.64-9.35 105.19-8.75L105.19-8.75Q98.79-0.2 95.44-0.2L95.44-0.2Q94.99-0.2 94.59-0.35L94.59-0.35Q92.39-1.2 92.39-3.65L92.39-3.65Q92.39-4.5 92.59-5.35L92.59-5.35 89.49-2.35Q86.54 0.25 85.22 0.25 83.89 0.25 82.69-0.6L82.69-0.6Q81.34-1.6 81.34-3.25L81.34-3.25Q81.34-6.9 86.44-11.98 91.54-17.05 95.79-17.05L95.79-17.05Q97.44-17.05 97.99-15.9L97.99-15.9Q98.14-15.5 98.24-15.23 98.34-14.95 98.39-14.95ZM83.44-2.65L83.44-2.65Q83.44-0.85 84.69-0.85L84.69-0.85Q87.59-0.85 92.59-7.2L92.59-7.2 97.89-14.5Q97.49-15.2 96.59-15.2L96.59-15.2Q93.54-15.2 88.49-10.48 83.44-5.75 83.44-2.65ZM119.09-15.25L119.09-15.25 119.79-15.4Q120.44-15.4 120.82-15 121.19-14.6 121.19-14.38 121.19-14.15 121.14-13.88 121.09-13.6 119.69-11.35L119.69-11.35Q117.94-8.3 116.79-6.2L116.79-6.2Q112.74 1.35 110.59 4.15L110.59 4.15Q105.99 10.25 101.84 10.25L101.84 10.25Q100.39 10.25 99.32 9.03 98.24 7.8 98.19 6.3L98.19 6.3Q98.34 5.7 98.64 5.7L98.64 5.7Q98.79 5.7 98.89 6.05L98.89 6.05Q99.14 7.35 99.84 8.05 100.54 8.75 101.24 8.75L101.24 8.75Q104.09 8.75 107.34 5L107.34 5Q109.49 2.5 112.09-2.3L112.09-2.3 114.59-7.25 110.84-3.45Q107.24 0 105.92 0 104.59 0 103.39-0.9L103.39-0.9Q102.04-1.9 102.04-3.55L102.04-3.55Q102.04-7.2 107.17-12.25 112.29-17.3 116.49-17.3L116.49-17.3Q118.19-17.3 118.69-16.2L118.69-16.2Q118.84-15.8 118.94-15.53 119.04-15.25 119.09-15.25ZM104.14-2.95L104.14-2.95Q104.14-1.15 105.39-1.15L105.39-1.15Q108.29-1.15 113.29-7.5L113.29-7.5 118.59-14.8Q118.29-15.5 117.34-15.5L117.34-15.5Q114.24-15.5 109.19-10.73 104.14-5.95 104.14-2.95ZM131.09 0.25L131.09 0.25Q127.34 0.25 127.34-3.9L127.34-3.9Q127.34-6 128.44-8.5 129.54-11 130.84-12.7L130.84-12.7Q130.59-12.65 130.19-12.65L130.19-12.65Q128.99-12.65 128.19-14.35L128.19-14.35 124.49-9.55Q121.39-5.7 120.89-5.7L120.89-5.7Q120.64-5.7 120.64-5.9L120.64-5.9Q120.64-6.4 121.49-7.35L121.49-7.35Q125.84-12.4 127.64-15.9L127.64-15.9Q128.79-20.25 130.54-20.25L130.54-20.25Q131.69-20.25 131.69-19.25 131.69-18.25 130.44-16.7L130.44-16.7 129.24-15.1Q129.24-14.05 130.79-14.05L130.79-14.05Q131.69-14.05 132.79-14.7L132.79-14.7 134.09-15.5Q134.19-15.55 134.59-15.55 134.99-15.55 135.44-15.05 135.89-14.55 135.74-14.15L135.74-14.15 132.29-9.8Q129.09-5.7 129.09-3.33 129.09-0.95 131.29-0.95L131.29-0.95Q133.59-0.95 136.94-3.4L136.94-3.4Q138.94-4.85 140.59-6.65L140.59-6.65Q142.14-8.45 142.29-8.45L142.29-8.45Q142.64-8.45 142.64-8.08 142.64-7.7 142.19-7.2L142.19-7.2 140.59-5.4Q139.24-4 137.59-2.7L137.59-2.7Q133.64 0.25 131.09 0.25ZM157.19-14.95L157.19-14.95 157.89-15.1Q158.44-15.1 158.94-14.65 159.44-14.2 159.44-13.95 159.44-13.7 156.34-9.13 153.24-4.55 153.24-2.75L153.24-2.75Q153.24-2.6 153.29-2.45L153.29-2.45Q153.54-1.3 154.39-1.3L154.39-1.3Q156.99-1.3 163.89-9.9L163.89-9.9Q164.04-10.1 164.24-10.1 164.44-10.1 164.44-9.73 164.44-9.35 163.99-8.75L163.99-8.75Q157.59-0.2 154.24-0.2L154.24-0.2Q153.79-0.2 153.39-0.35L153.39-0.35Q151.19-1.2 151.19-3.65L151.19-3.65Q151.19-4.5 151.39-5.35L151.39-5.35 148.29-2.35Q145.34 0.25 144.01 0.25 142.69 0.25 141.49-0.6L141.49-0.6Q140.14-1.6 140.14-3.25L140.14-3.25Q140.14-6.9 145.24-11.98 150.34-17.05 154.59-17.05L154.59-17.05Q156.24-17.05 156.79-15.9L156.79-15.9Q156.94-15.5 157.04-15.23 157.14-14.95 157.19-14.95ZM142.24-2.65L142.24-2.65Q142.24-0.85 143.49-0.85L143.49-0.85Q146.39-0.85 151.39-7.2L151.39-7.2 156.69-14.5Q156.29-15.2 155.39-15.2L155.39-15.2Q152.34-15.2 147.29-10.48 142.24-5.75 142.24-2.65ZM164.98 0.65L164.98 0.65Q164.43 0.65 163.98 0.5L163.98 0.5Q160.78-0.4 160.78-3.1L160.78-3.1Q160.78-6.6 165.18-11.2 169.58-15.8 173.08-15.8L173.08-15.8Q174.23-15.8 174.96-15.18 175.68-14.55 175.68-13.48 175.68-12.4 175.03-11.23 174.38-10.05 173.08-10.05 171.78-10.05 171.78-10.85L171.78-10.85Q171.78-11.4 172.46-12.53 173.13-13.65 173.13-13.73 173.13-13.8 172.98-13.8L172.98-13.8Q171.58-13.65 169.16-11.8 166.73-9.95 165.83-8.7L165.83-8.7 163.88-5.85Q163.38-5.05 163.16-3.95 162.93-2.85 162.93-2.3 162.93-1.75 163.56-1.05 164.18-0.35 165.33-0.35L165.33-0.35Q167.83-0.35 171.53-3.28 175.23-6.2 177.23-8.85L177.23-8.85Q177.48-9.15 177.83-9.15 178.18-9.15 178.18-8.95 178.18-8.75 177.93-8.45L177.93-8.45Q175.18-4.8 171.36-2.08 167.53 0.65 164.98 0.65ZM177.88 0.65L177.88 0.65Q177.33 0.65 176.88 0.5L176.88 0.5Q173.68-0.4 173.68-3.1L173.68-3.1Q173.68-6.6 178.08-11.2 182.48-15.8 185.98-15.8L185.98-15.8Q187.13-15.8 187.86-15.18 188.58-14.55 188.58-13.65L188.58-13.65Q188.58-10.85 184.36-8.3 180.13-5.75 177.48-5.75L177.48-5.75Q177.08-5.75 176.78-5.85L176.78-5.85Q176.03-4.5 176.03-3L176.03-3Q176.03-0.4 178.51-0.4 180.98-0.4 184.93-3.75L184.93-3.75Q187.98-6.2 190.13-8.95L190.13-8.95Q190.58-9.55 190.91-9.55 191.23-9.55 191.23-9.25 191.23-8.95 190.83-8.4L190.83-8.4Q188.13-4.85 184.33-2.1 180.53 0.65 177.88 0.65ZM187.33-13.75L187.33-13.75Q187.33-14.35 186.06-14.35 184.78-14.35 182.43-12.4L182.43-12.4Q179.28-9.8 177.53-6.95L177.53-6.95Q177.83-6.85 178.18-6.85L178.18-6.85Q180.08-6.85 183.26-8.88 186.43-10.9 187.23-13.3L187.23-13.3Q187.33-13.55 187.33-13.75ZM190.13-2.5Q190.13-1 191.78-1 193.43-1 196.03-2.75 198.63-4.5 201.08-7.5L201.08-7.5Q201.68-8.3 202.03-8.3 202.38-8.3 202.38-8L202.38-8Q202.38-7.7 200.33-5.4L200.33-5.4Q195.33 0.1 191.98 0.1L191.98 0.1Q190.33 0.1 189.18-0.68 188.03-1.45 188.03-3.08 188.03-4.7 188.88-6.85L188.88-6.85Q190.33-10.25 193.53-15.4L193.53-15.4Q199.38-24.9 201.83-24.9L201.83-24.9Q202.33-24.9 202.85-24.53 203.38-24.15 203.43-23.7L203.43-23.7Q202.28-22.15 199-17.75 195.73-13.35 194.48-11.43 193.23-9.5 192.6-8.55 191.98-7.6 191.68-7.08 191.38-6.55 190.98-5.7L190.98-5.7Q190.13-4 190.13-2.5ZM202.88 0.65L202.88 0.65Q202.33 0.65 201.88 0.5L201.88 0.5Q198.68-0.4 198.68-3.1L198.68-3.1Q198.68-6.6 203.08-11.2 207.48-15.8 210.98-15.8L210.98-15.8Q212.13-15.8 212.85-15.18 213.58-14.55 213.58-13.65L213.58-13.65Q213.58-10.85 209.35-8.3 205.13-5.75 202.48-5.75L202.48-5.75Q202.08-5.75 201.78-5.85L201.78-5.85Q201.03-4.5 201.03-3L201.03-3Q201.03-0.4 203.5-0.4 205.98-0.4 209.93-3.75L209.93-3.75Q212.98-6.2 215.13-8.95L215.13-8.95Q215.58-9.55 215.9-9.55 216.23-9.55 216.23-9.25 216.23-8.95 215.83-8.4L215.83-8.4Q213.13-4.85 209.33-2.1 205.53 0.65 202.88 0.65ZM212.33-13.75L212.33-13.75Q212.33-14.35 211.05-14.35 209.78-14.35 207.43-12.4L207.43-12.4Q204.28-9.8 202.53-6.95L202.53-6.95Q202.83-6.85 203.18-6.85L203.18-6.85Q205.08-6.85 208.25-8.88 211.43-10.9 212.23-13.3L212.23-13.3Q212.33-13.55 212.33-13.75ZM224.57-12.45L224.57-12.45Q224.57-15.85 226.67-15.85L226.67-15.85Q226.87-15.85 227.12-15.8L227.12-15.8Q227.97-15.65 227.97-14.5 227.97-13.35 227.57-11.6L227.57-11.6Q227.17-10.3 227.02-9.65L227.02-9.65Q227.17-8.8 227.85-7.48 228.52-6.15 229.7-6.15 230.87-6.15 232.32-7.75L232.32-7.75Q232.62-8.1 232.9-8.1 233.17-8.1 233.2-7.78 233.22-7.45 232.82-6.9L232.82-6.9Q231.27-5.05 229.57-5.05L229.57-5.05Q227.12-5.05 225.62-8.65L225.62-8.65Q224.07-5.1 221.22-2.53 218.37 0.05 215.57 0.05L215.57 0.05Q212.92 0.05 212.92-3.95L212.92-3.95Q212.92-7.1 218.8-15.55 224.67-24 227.77-24L227.77-24Q228.42-24 228.95-23.6 229.47-23.2 229.47-22.65L229.47-22.65Q229.47-22.7 228.75-21.9 228.02-21.1 224.8-17.6 221.57-14.1 218.47-9.9 215.37-5.7 215.37-3.4L215.37-3.4Q215.37-2.8 215.7-2.1 216.02-1.4 216.77-1.4L216.77-1.4Q218.97-1.4 221.92-4.8L221.92-4.8Q224.37-7.8 224.92-9.85L224.92-9.85Q224.57-10.9 224.57-12.45ZM241.62 0.25L241.62 0.25Q237.87 0.25 237.87-3.9L237.87-3.9Q237.87-6 238.97-8.5 240.07-11 241.37-12.7L241.37-12.7Q241.12-12.65 240.72-12.65L240.72-12.65Q239.52-12.65 238.72-14.35L238.72-14.35 235.02-9.55Q231.92-5.7 231.42-5.7L231.42-5.7Q231.17-5.7 231.17-5.9L231.17-5.9Q231.17-6.4 232.02-7.35L232.02-7.35Q236.37-12.4 238.17-15.9L238.17-15.9Q239.32-20.25 241.07-20.25L241.07-20.25Q242.22-20.25 242.22-19.25 242.22-18.25 240.97-16.7L240.97-16.7 239.77-15.1Q239.77-14.05 241.32-14.05L241.32-14.05Q242.22-14.05 243.32-14.7L243.32-14.7 244.62-15.5Q244.72-15.55 245.12-15.55 245.52-15.55 245.97-15.05 246.42-14.55 246.27-14.15L246.27-14.15 242.82-9.8Q239.62-5.7 239.62-3.33 239.62-0.95 241.82-0.95L241.82-0.95Q244.12-0.95 247.47-3.4L247.47-3.4Q249.47-4.85 251.12-6.65L251.12-6.65Q252.67-8.45 252.82-8.45L252.82-8.45Q253.17-8.45 253.17-8.08 253.17-7.7 252.72-7.2L252.72-7.2 251.12-5.4Q249.77-4 248.12-2.7L248.12-2.7Q244.17 0.25 241.62 0.25ZM267.72-14.95L267.72-14.95 268.42-15.1Q268.97-15.1 269.47-14.65 269.97-14.2 269.97-13.95 269.97-13.7 266.87-9.13 263.77-4.55 263.77-2.75L263.77-2.75Q263.77-2.6 263.82-2.45L263.82-2.45Q264.07-1.3 264.92-1.3L264.92-1.3Q267.52-1.3 274.42-9.9L274.42-9.9Q274.57-10.1 274.77-10.1 274.97-10.1 274.97-9.73 274.97-9.35 274.52-8.75L274.52-8.75Q268.12-0.2 264.77-0.2L264.77-0.2Q264.32-0.2 263.92-0.35L263.92-0.35Q261.72-1.2 261.72-3.65L261.72-3.65Q261.72-4.5 261.92-5.35L261.92-5.35 258.82-2.35Q255.87 0.25 254.54 0.25 253.22 0.25 252.02-0.6L252.02-0.6Q250.67-1.6 250.67-3.25L250.67-3.25Q250.67-6.9 255.77-11.98 260.87-17.05 265.12-17.05L265.12-17.05Q266.77-17.05 267.32-15.9L267.32-15.9Q267.47-15.5 267.57-15.23 267.67-14.95 267.72-14.95ZM252.77-2.65L252.77-2.65Q252.77-0.85 254.02-0.85L254.02-0.85Q256.92-0.85 261.92-7.2L261.92-7.2 267.22-14.5Q266.82-15.2 265.92-15.2L265.92-15.2Q262.87-15.2 257.82-10.48 252.77-5.75 252.77-2.65ZM279.77-15.8L279.77-15.8Q281.12-15.8 281.12-14.75L281.12-14.75Q281.12-14.45 280.97-14.15L280.97-14.15Q276.47-7.9 275.57-4.7L275.57-4.7Q287.22-16.35 289.72-16.35L289.72-16.35Q289.97-16.4 290.17-16.4L290.17-16.4Q291.57-16.4 291.57-15.15L291.57-15.15Q291.57-14.9 291.47-14.65 291.37-14.4 289.47-11.95L289.47-11.95Q287.27-9.35 285.74-6.95 284.22-4.55 284.22-2.95 284.22-1.35 284.92-1.35L284.92-1.35Q287.12-1.35 292.57-7.4L292.57-7.4Q292.67-7.5 292.92-7.85L292.92-7.85Q293.67-8.75 293.82-8.75 293.97-8.75 293.97-8.25 293.97-7.75 293.27-6.95L293.27-6.95Q287.07 0.1 284.47 0.1L284.47 0.1Q282.02 0.1 282.02-2.6 282.02-5.3 284.02-8.8L284.02-8.8 287.22-14Q283.82-11.5 281.17-8.53 278.52-5.55 276.34-2.75 274.17 0.05 273.82 0.05L273.82 0.05Q273.07 0.05 272.64-0.58 272.22-1.2 272.22-2.13 272.22-3.05 272.87-4.6 273.52-6.15 274.52-8.35L274.52-8.35 271.52-5.2Q270.42-4.1 270.14-4.1 269.87-4.1 269.87-4.42 269.87-4.75 270.27-5.15L270.27-5.15Q272.12-7 273.47-8.7L273.47-8.7Q274.77-10.4 278.82-15.2L278.82-15.2Q279.27-15.8 279.77-15.8ZM304.91-16.1L304.91-16.1 312.11-16.2Q312.26-16.1 312.26-16.05L312.26-16.05Q312.26-15.6 306.04-14.8 299.81-14 299.31-13.85L299.31-13.85Q298.36-13 295.81-8.78 293.26-4.55 293.26-2.6L293.26-2.6Q293.26-0.75 295.81-0.75L295.81-0.75Q297.01-0.75 298.96-1.5 300.91-2.25 301.96-2.9L301.96-2.9Q304.76-4.65 307.96-8.05L307.96-8.05Q308.66-8.75 308.91-8.75L308.91-8.75Q309.06-8.75 309.06-8.45 309.06-8.15 308.31-7.25L308.31-7.25Q305.71-4.05 302.46-2.1L302.46-2.1Q298.56 0.3 295.01 0.3L295.01 0.3Q293.46 0.3 292.49-0.38 291.51-1.05 291.51-3.1 291.51-5.15 293.31-8.72 295.11-12.3 296.06-14.05L296.06-14.05Q295.36-13.9 294.86-13.9L294.86-13.9Q293.41-13.9 293.41-15.05L293.41-15.05Q293.41-15.9 294.61-16.25L294.61-16.25Q294.76-16.25 295.06-16.3L295.06-16.3 297.96-16.3Q298.86-17.45 300.01-18.95L300.01-18.95Q301.41-20.75 301.91-20.75 302.41-20.75 303.16-20.35 303.91-19.95 303.91-19.4 303.91-18.85 301.51-16.15L301.51-16.15Q302.81-16.1 304.91-16.1Z" opacity="1" transform="matrix(1,0,0,1,0,0)" fill="#ffffff" class="undefined-text-0" data-fill-palette-color="primary" id="SvgjsPath1136" stroke-width="5" stroke="black" stroke-linejoin="round"></path></svg></g></svg></g></svg></g></svg></g><g></g></svg></g></svg></g></svg></g></mask></defs></svg><rect width="395.52" height="247.2" fill="none" stroke="none" visibility="hidden"></rect></g></svg></g></svg>